#!OML:ASF F:\VICON\USERDATA\INSTALL\rory3\rory3.ASF
:FULLY-SPECIFIED
:DEGREES
302
root 0.845159 17.9193 24.3856 -2.49564 -3.50217 1.70287
lowerback 11.3445 -0.142563 -3.35409
upperback -0.265695 -0.555093 1.24095
thorax -6.61371 -0.13717 3.29846
lowerneck -16.2996 -2.20387 -1.5145
upperneck 24.3096 -2.57371 -0.514697
head 10.5018 -1.3903 -0.282968
rclavicle 7.01958e-015 -9.54166e-015
rhumerus -32.7308 -27.3433 -73.4499
rradius 24.4909
rwrist 5.94285
rhand -17.3606 21.8326
rfingers 7.12502
rthumb 8.88738 -7.96023
lclavicle 7.01958e-015 -9.54166e-015
lhumerus -29.1431 -3.70961 81.0316
lradius 29.6875
lwrist 9.30145
lhand -24.8818 23.7729
lfingers 7.12502
lthumb 1.62573 53.7464
rfemur -29.6631 -0.716875 20.3366
rtibia 42.5872
rfoot -9.60173 -11.2732
rtoes -6.1355
lfemur 1.43245 -0.971088 -27.0213
ltibia 22.3074
lfoot -16.5733 -0.386673
ltoes 0.766655
303
root 0.835745 17.9158 24.5408 -2.3179 -3.4968 1.81928
lowerback 11.0508 -0.182061 -3.43333
upperback -0.144186 -0.610555 1.19246
thorax -6.31381 -0.171198 3.29477
lowerneck -16.5529 -2.21973 -1.59166
upperneck 24.3653 -2.62675 -0.30208
head 10.5759 -1.39514 -0.205355
rclavicle 1.0312e-014 -3.97569e-015
rhumerus -32.802 -27.722 -73.3202
rradius 24.3454
rwrist 6.10873
rhand -17.3772 21.4688
rfingers 7.12502
rthumb 8.8714 -8.32469
lclavicle 1.0312e-014 -3.97569e-015
lhumerus -28.5233 -3.66633 80.7847
lradius 29.7637
lwrist 9.0516
lhand -25.4792 22.7096
lfingers 7.12502
lthumb 1.04877 52.6868
rfemur -29.7653 -0.314975 20.1515
rtibia 39.7936
rfoot -9.04974 -11.9335
rtoes -7.16207
lfemur 2.23754 -0.911768 -27.155
ltibia 21.5226
lfoot -16.6512 -0.304128
ltoes -0.696395
304
root 0.816686 17.9117 24.6921 -2.11157 -3.61728 1.6578
lowerback 10.9873 -0.159471 -3.41119
upperback -0.0669185 -0.569349 1.27819
thorax -6.19876 -0.154085 3.36429
lowerneck -17.0048 -2.22252 -1.64903
upperneck 24.4598 -2.6368 -0.185251
head 10.7009 -1.38923 -0.161879
rclavicle -5.59082e-015 4.77083e-015
rhumerus -32.9594 -28.0599 -73.1263
rradius 24.2766
rwrist 6.30387
rhand -17.3155 21.36
rfingers 7.12502
rthumb 8.93093 -8.43099
lclavicle -5.59082e-015 4.77083e-015
lhumerus -27.9627 -3.58387 80.6082
lradius 29.914
lwrist 9.09953
lhand -26.3622 20.9907
lfingers 7.12502
lthumb 0.195924 50.9704
rfemur -29.8437 0.281887 20.2965
rtibia 36.8693
rfoot -8.70536 -12.5327
rtoes -7.15761
lfemur 2.92787 -0.583883 -26.9002
ltibia 20.8157
lfoot -16.7284 -0.403678
ltoes -1.21161
305
root 0.795322 17.9068 24.8499 -1.9356 -3.61363 1.48089
lowerback 11.059 -0.206047 -3.43487
upperback -0.201315 -0.63063 1.3913
thorax -6.37545 -0.175375 3.51034
lowerneck -16.7767 -2.19474 -1.57848
upperneck 24.3534 -2.58838 -0.310709
head 10.6142 -1.37683 -0.208054
rclavicle 1.22253e-014 -3.97569e-015
rhumerus -33.4347 -28.5999 -72.5775
rradius 23.9375
rwrist 6.97461
rhand -17.0711 21.4438
rfingers 7.12502
rthumb 9.16674 -8.33696
lclavicle 1.22253e-014 -3.97569e-015
lhumerus -27.828 -3.62147 80.5131
lradius 29.978
lwrist 9.55546
lhand -25.9348 21.4374
lfingers 7.12502
lthumb 0.608682 51.4163
rfemur -29.7798 1.01566 20.3616
rtibia 33.8985
rfoot -9.02801 -13.2852
rtoes -5.33757
lfemur 3.63097 -0.504714 -26.6528
ltibia 20.1738
lfoot -16.733 -0.547332
ltoes 0.154858
306
root 0.78159 17.9026 25.0135 -1.80816 -3.43118 1.44754
lowerback 10.916 -0.323982 -3.45926
upperback -0.293569 -0.784882 1.42376
thorax -6.37865 -0.248158 3.58197
lowerneck -16.2591 -2.2504 -1.57461
upperneck 24.051 -2.67334 -0.326649
head 10.4039 -1.41893 -0.216933
rclavicle -9.16894e-015 -1.39149e-014
rhumerus -33.7101 -28.7934 -72.3178
rradius 23.5217
rwrist 6.86008
rhand -17.1417 21.4864
rfingers 7.12502
rthumb 9.09864 -8.29737
lclavicle -9.16894e-015 -1.39149e-014
lhumerus -27.7994 -3.67358 80.3907
lradius 30.1292
lwrist 9.78792
lhand -24.8564 23.625
lfingers 7.12502
lthumb 1.65026 53.5983
rfemur -29.588 1.74386 20.1355
rtibia 30.9662
rfoot -9.60025 -14.0125
rtoes -3.93706
lfemur 4.42031 -0.575193 -26.6086
ltibia 19.4638
lfoot -16.6835 -0.6641
ltoes 0.99661
307
root 0.770707 17.8965 25.168 -1.56254 -3.20669 1.72087
lowerback 10.6759 -0.433263 -3.74347
upperback -0.325448 -0.96155 1.38157
thorax -6.25799 -0.328823 3.72178
lowerneck -16.2238 -2.32764 -1.67606
upperneck 23.9527 -2.76849 -0.273999
head 10.3646 -1.46568 -0.192982
rclavicle -1.16786e-015 3.18055e-015
rhumerus -33.8347 -29.0469 -72.1339
rradius 23.264
rwrist 6.61259
rhand -17.114 21.9039
rfingers 7.12502
rthumb 9.12532 -7.87865
lclavicle -1.16786e-015 3.18055e-015
lhumerus -27.5176 -3.4338 80.2001
lradius 30.2995
lwrist 9.59353
lhand -25.1011 25.0753
lfingers 7.12502
lthumb 1.41393 55.0504
rfemur -29.5855 2.43016 19.5068
rtibia 28.1669
rfoot -9.76092 -14.3794
rtoes -3.99574
lfemur 5.07104 -0.563435 -26.8896
ltibia 18.5653
lfoot -16.4786 -0.803439
ltoes 0.0746185
308
root 0.759825 17.8866 25.3269 -1.47067 -3.05377 2.06972
lowerback 10.7363 -0.493796 -4.0287
upperback -0.343592 -1.08772 1.27276
thorax -6.29725 -0.381979 3.78975
lowerneck -16.4965 -2.3627 -1.67615
upperneck 24.0875 -2.81892 -0.253109
head 10.4669 -1.48558 -0.197357
rclavicle -2.41026e-015 7.95139e-016
rhumerus -34.2782 -29.8259 -71.5575
rradius 23.0415
rwrist 6.87821
rhand -16.4324 22.5461
rfingers 7.12502
rthumb 9.78302 -7.20665
lclavicle -2.41026e-015 7.95139e-016
lhumerus -27.1327 -3.46059 79.9995
lradius 30.3311
lwrist 9.55708
lhand -25.7342 25.7355
lfingers 7.12502
lthumb 0.802444 55.7138
rfemur -29.4291 3.08884 18.7635
rtibia 25.5738
rfoot -9.70783 -14.3104
rtoes -4.62591
lfemur 6.05818 -0.316936 -27.2278
ltibia 17.4771
lfoot -16.2241 -0.971305
ltoes -1.26377
309
root 0.743414 17.8809 25.4932 -1.49145 -2.92892 2.23919
lowerback 10.9316 -0.54053 -4.21056
upperback -0.402134 -1.18364 1.24911
thorax -6.45826 -0.417891 3.88894
lowerneck -16.5506 -2.33708 -1.75759
upperneck 24.2239 -2.77623 -0.191975
head 10.5293 -1.4661 -0.157976
rclavicle -6.58474e-015 -6.75868e-015
rhumerus -35.122 -31.1684 -70.3089
rradius 22.4557
rwrist 8.29432
rhand -15.1522 25.0657
rfingers 7.12502
rthumb 11.0179 -4.62514
lclavicle -6.58474e-015 -6.75868e-015
lhumerus -26.923 -3.77425 79.9585
lradius 30.2559
lwrist 10.0988
lhand -25.3622 24.7115
lfingers 7.12502
lthumb 1.16173 54.6881
rfemur -29.1419 4.04222 18.1585
rtibia 23.2037
rfoot -9.69091 -14.3951
rtoes -5.86048
lfemur 7.2444 -0.183649 -27.3571
ltibia 16.4177
lfoot -16.0795 -1.0741
ltoes -1.05276
310
root 0.725277 17.8754 25.662 -1.47655 -2.58368 2.40654
lowerback 10.9296 -0.65498 -4.40842
upperback -0.41578 -1.36436 1.21059
thorax -6.45087 -0.500497 3.98919
lowerneck -16.4116 -2.29951 -1.77011
upperneck 24.1381 -2.74463 -0.108027
head 10.4724 -1.44301 -0.119092
rclavicle 2.03754e-014 -1.59028e-015
rhumerus -35.1892 -30.4074 -70.8236
rradius 22.8459
rwrist 6.59256
rhand -15.8077 23.2145
rfingers 7.12502
rthumb 10.3857 -6.50903
lclavicle 2.03754e-014 -1.59028e-015
lhumerus -26.7196 -3.79398 79.8428
lradius 30.3093
lwrist 10.3817
lhand -25.5362 24.4427
lfingers 7.12502
lthumb 0.993692 54.4201
rfemur -28.8431 5.02752 17.4526
rtibia 21.0392
rfoot -9.80366 -14.6402
rtoes -6.46734
lfemur 8.24629 -0.247431 -27.4762
ltibia 15.484
lfoot -15.871 -1.39893
ltoes -0.774845
311
root 0.705119 17.864 25.823 -1.3162 -2.32736 2.40184
lowerback 10.6789 -0.767371 -4.49506
upperback -0.3039 -1.50951 1.24853
thorax -6.17247 -0.578782 4.09145
lowerneck -16.623 -2.27072 -1.66011
upperneck 24.0476 -2.70349 -0.204757
head 10.4763 -1.4249 -0.168196
rclavicle -3.45388e-015 -5.96354e-015
rhumerus -35.3171 -30.9425 -70.4481
rradius 22.4314
rwrist 7.27633
rhand -15.3577 24.535
rfingers 7.12502
rthumb 10.8198 -5.16633
lclavicle -3.45388e-015 -5.96354e-015
lhumerus -26.2477 -3.5641 79.6707
lradius 30.3671
lwrist 10.127
lhand -26.022 24.714
lfingers 7.12502
lthumb 0.524525 54.6931
rfemur -28.7024 5.9685 16.9801
rtibia 19.0433
rfoot -10.3011 -14.8097
rtoes -4.83528
lfemur 8.89436 -0.111708 -27.3666
ltibia 14.8322
lfoot -15.7346 -1.85361
ltoes -1.749
312
root 0.678439 17.8506 25.9805 -1.21199 -2.232 2.42138
lowerback 10.5068 -0.801004 -4.63263
upperback -0.154854 -1.5602 1.26007
thorax -5.90827 -0.610291 4.18085
lowerneck -17.012 -2.29165 -1.6026
upperneck 24.0396 -2.73421 -0.229206
head 10.5471 -1.43521 -0.19577
rclavicle 6.95746e-016 -1.19271e-015
rhumerus -35.3789 -32.0237 -69.9707
rradius 21.9406
rwrist 8.41234
rhand -15.291 25.1692
rfingers 7.12502
rthumb 10.8841 -4.52873
lclavicle 6.95746e-016 -1.19271e-015
lhumerus -25.7684 -3.53037 79.5341
lradius 30.3644
lwrist 10.1775
lhand -25.6249 23.2547
lfingers 7.12502
lthumb 0.908021 53.2325
rfemur -28.5394 7.15617 16.4865
rtibia 17.2304
rfoot -11.0156 -15.0581
rtoes -3.35687
lfemur 9.37931 0.0717273 -27.2703
ltibia 14.6635
lfoot -15.8609 -2.03427
ltoes -1.85158
313
root 0.653267 17.8408 26.1382 -1.17671 -1.96498 2.29708
lowerback 10.6451 -0.902261 -4.59746
upperback -0.219984 -1.69393 1.32865
thorax -6.04021 -0.670632 4.25948
lowerneck -17.0199 -2.31963 -1.60796
upperneck 24.1148 -2.76703 -0.251431
head 10.5761 -1.45357 -0.208195
rclavicle 8.82107e-015 -5.96354e-015
rhumerus -35.8447 -32.9223 -69.1961
rradius 21.4251
rwrist 9.49807
rhand -15.2346 25.5913
rfingers 7.12502
rthumb 10.9385 -4.10373
lclavicle 8.82107e-015 -5.96354e-015
lhumerus -25.6613 -3.31096 79.4127
lradius 30.3475
lwrist 9.9602
lhand -25.6594 22.8365
lfingers 7.12502
lthumb 0.874721 52.8144
rfemur -28.2603 7.96133 16.2423
rtibia 15.7465
rfoot -11.1289 -15.2837
rtoes -7.13384
lfemur 9.85995 -0.0742399 -27.0506
ltibia 14.8891
lfoot -16.1647 -2.01265
ltoes -2.0976
